<svg xmlns="http://www.w3.org/2000/svg" width="17" height="17" fill="none" viewBox="0 0 17 17"><path fill="#1B1C21" d="M14.1121 6.72554L10.5148 6.17806L8.90666 2.7641C8.86274 2.67063 8.79048 2.59496 8.70122 2.54897C8.47736 2.43324 8.20532 2.52968 8.09339 2.7641L6.48528 6.17806L2.88791 6.72554C2.78873 6.74038 2.69805 6.78934 2.62863 6.86352C2.5447 6.95386 2.49845 7.07539 2.50004 7.20142C2.50163 7.32745 2.55094 7.44766 2.63713 7.53563L5.23987 10.1929L4.62496 13.9452C4.61054 14.0324 4.61976 14.1222 4.65159 14.2043C4.68341 14.2864 4.73655 14.3575 4.805 14.4095C4.87344 14.4616 4.95444 14.4925 5.03882 14.4988C5.1232 14.5051 5.20757 14.4865 5.28238 14.4452L8.50003 12.6736L11.7177 14.4452C11.8055 14.4941 11.9075 14.5104 12.0053 14.4926C12.2518 14.4481 12.4176 14.2033 12.3751 13.9452L11.7602 10.1929L14.3629 7.53563C14.4338 7.46293 14.4805 7.36798 14.4947 7.26412C14.533 7.00447 14.3601 6.76412 14.1121 6.72554V6.72554Z"/></svg>