<svg xmlns="http://www.w3.org/2000/svg" width="18" height="18" fill="none" viewBox="0 0 18 18"><path fill="#929292" d="M8.57427 5.77655C6.99943 5.77655 5.71425 7.07526 5.71425 8.66667C5.71425 10.2581 6.99943 11.5568 8.57427 11.5568C10.1491 11.5568 11.4343 10.2581 11.4343 8.66667C11.4343 7.07526 10.1491 5.77655 8.57427 5.77655ZM17.1522 8.66667C17.1522 7.46986 17.1629 6.28389 17.0964 5.08925C17.0299 3.70165 16.7166 2.47015 15.7125 1.45546C14.7063 0.438607 13.4897 0.124228 12.1166 0.0570163C10.9322 -0.0101958 9.75862 0.000644898 8.57642 0.000644898C7.39207 0.000644898 6.21845 -0.0101958 5.03625 0.0570163C3.6631 0.124228 2.44442 0.440775 1.4403 1.45546C0.43404 2.47231 0.122935 3.70165 0.0564225 5.08925C-0.0100896 6.28606 0.000638182 7.47203 0.000638182 8.66667C0.000638182 9.86131 -0.0100896 11.0494 0.0564225 12.2441C0.122935 13.6317 0.436186 14.8632 1.4403 15.8779C2.44657 16.8947 3.6631 17.2091 5.03625 17.2763C6.2206 17.3435 7.39422 17.3327 8.57642 17.3327C9.76076 17.3327 10.9344 17.3435 12.1166 17.2763C13.4897 17.2091 14.7084 16.8926 15.7125 15.8779C16.7188 14.861 17.0299 13.6317 17.0964 12.2441C17.1651 11.0494 17.1522 9.86348 17.1522 8.66667V8.66667ZM8.57427 13.1135C6.13907 13.1135 4.17374 11.1275 4.17374 8.66667C4.17374 6.20584 6.13907 4.21983 8.57427 4.21983C11.0095 4.21983 12.9748 6.20584 12.9748 8.66667C12.9748 11.1275 11.0095 13.1135 8.57427 13.1135ZM13.155 5.07624C12.5865 5.07624 12.1273 4.61226 12.1273 4.03771C12.1273 3.46315 12.5865 2.99917 13.155 2.99917C13.7236 2.99917 14.1827 3.46315 14.1827 4.03771C14.1829 4.17414 14.1565 4.30926 14.1049 4.43534C14.0533 4.56142 13.9776 4.67597 13.8821 4.77244C13.7866 4.86891 13.6733 4.94541 13.5485 4.99754C13.4238 5.04967 13.29 5.07641 13.155 5.07624V5.07624Z"/></svg>